<svg width="36" height="36" viewBox="0 0 36 36" fill="none" xmlns="http://www.w3.org/2000/svg">
<path d="M13.5 24H13.515M13.5 7.5H10.5C8.84314 7.5 7.5 8.84314 7.5 10.5V28.5C7.5 30.1569 8.84314 31.5 10.5 31.5H25.5C27.1569 31.5 28.5 30.1569 28.5 28.5V10.5C28.5 8.84314 27.1569 7.5 25.5 7.5H22.5H13.5ZM13.5 7.5C13.5 9.15686 14.8431 10.5 16.5 10.5H19.5C21.1569 10.5 22.5 9.15686 22.5 7.5H13.5ZM13.5 7.5C13.5 5.84314 14.8431 4.5 16.5 4.5H19.5C21.1569 4.5 22.5 5.84314 22.5 7.5H13.5ZM18 18H22.5H18ZM18 24H22.5H18ZM13.5 18H13.515H13.5Z" stroke="#627D98" stroke-width="2" stroke-linecap="round" stroke-linejoin="round"/>
</svg>
